<svg width="20" height="16" viewBox="0 0 20 16" fill="none" xmlns="http://www.w3.org/2000/svg">
<path fill-rule="evenodd" clip-rule="evenodd" d="M17.2014 14.966V14.2472V14.2312H18.2377C18.6681 14.2312 19.0188 13.8799 19.0188 13.4486V2.31597C19.0188 1.88472 18.6681 1.53333 18.2377 1.53333H9.21449C9.19161 1.46809 9.16873 1.39857 9.14502 1.32651C8.95391 0.745785 8.70848 0 7.97101 0H1.96087C1.53043 0 1.17971 0.351389 1.17971 0.782639V1.83681H0.462319C0.207246 1.83681 0 2.04444 0 2.3V13.4326V14.966C0 15.2215 0.207246 15.4292 0.462319 15.4292H16.7391C16.9942 15.4292 17.2014 15.2215 17.2014 14.966ZM7.49275 3.37014L7.0942 2.3C6.99855 2.06042 6.72754 1.85278 6.48841 1.85278H1.84928V0.798611C1.84928 0.734722 1.8971 0.670833 1.97681 0.670833H7.97101C8.31251 0.670833 8.5336 1.42487 8.67407 1.90397C8.71065 2.02874 8.74177 2.13486 8.76812 2.20417H18.2536C18.3174 2.20417 18.3812 2.25208 18.3812 2.33194V13.4646C18.3812 13.5285 18.3333 13.5924 18.2536 13.5924H17.2014V3.83333C17.2014 3.57778 16.9942 3.37014 16.7391 3.37014H7.49275ZM8.75355 12.7417V5.46893H7.30824L5.50781 6.60885V7.97248L7.1733 6.92845H7.21591V12.7417H8.75355Z" fill="#5F98F5"/>
</svg>
