<svg width="20" height="16" viewBox="0 0 20 16" fill="none" xmlns="http://www.w3.org/2000/svg">
<path fill-rule="evenodd" clip-rule="evenodd" d="M17.2014 14.966V14.2472V14.2312H18.2377C18.6681 14.2312 19.0188 13.8799 19.0188 13.4486V2.31597C19.0188 1.88472 18.6681 1.53333 18.2377 1.53333H9.21449C9.19161 1.46809 9.16873 1.39857 9.14502 1.32651C8.95391 0.745785 8.70848 0 7.97101 0H1.96087C1.53043 0 1.17971 0.351389 1.17971 0.782639V1.83681H0.462319C0.207246 1.83681 0 2.04444 0 2.3V13.4326V14.966C0 15.2215 0.207246 15.4292 0.462319 15.4292H16.7391C16.9942 15.4292 17.2014 15.2215 17.2014 14.966ZM7.49275 3.37014L7.0942 2.3C6.99855 2.06042 6.72754 1.85278 6.48841 1.85278H1.84928V0.798611C1.84928 0.734722 1.8971 0.670833 1.97681 0.670833H7.97101C8.31251 0.670833 8.5336 1.42487 8.67407 1.90397C8.71065 2.02874 8.74177 2.13486 8.76812 2.20417H18.2536C18.3174 2.20417 18.3812 2.25208 18.3812 2.33194V13.4646C18.3812 13.5285 18.3333 13.5924 18.2536 13.5924H17.2014V3.83333C17.2014 3.57778 16.9942 3.37014 16.7391 3.37014H7.49275ZM5.58946 11.6337V12.7417H10.7741V11.4846H7.72014V11.4348L8.78193 10.3944C9.28145 9.93982 9.66853 9.55038 9.94315 9.22604C10.2178 8.89934 10.4083 8.60222 10.5149 8.33471C10.6238 8.06719 10.6782 7.79612 10.6782 7.5215C10.6782 7.10246 10.5705 6.73078 10.3551 6.40644C10.1396 6.0821 9.8378 5.82879 9.44954 5.6465C9.06365 5.46184 8.61029 5.36951 8.08946 5.36951C7.58283 5.36951 7.13538 5.46539 6.74713 5.65715C6.35887 5.84891 6.05702 6.11998 5.84159 6.47036C5.62615 6.82074 5.51843 7.23385 5.51843 7.70971H6.97795C6.97795 7.4777 7.02293 7.27765 7.11289 7.10956C7.20286 6.94148 7.3307 6.81245 7.49642 6.72249C7.66214 6.63253 7.85626 6.58755 8.0788 6.58755C8.29187 6.58755 8.48245 6.63016 8.65054 6.71539C8.81862 6.79825 8.9512 6.9178 9.04826 7.07405C9.14533 7.22793 9.19386 7.41141 9.19386 7.62448C9.19386 7.81624 9.1548 7.99498 9.07667 8.1607C8.99855 8.32405 8.88373 8.49096 8.73221 8.66141C8.58306 8.83187 8.3984 9.02363 8.17823 9.23669L5.58946 11.6337Z" fill="#95FFAC"/>
</svg>
